<svg xmlns="http://www.w3.org/2000/svg" viewBox="0 0 400 600" width="400" height="600">
    <defs>
        <linearGradient id="shortfade" gradientUnits="userSpaceOnUse"  x1="200" y1="100" x2="200" y2="310">
            <stop offset="0" stop-color="rgba(0,0,0,.25)"  />
            <stop offset="1" stop-color="rgba(0,0,0,0)"  />
        </linearGradient>
    </defs>
    <style>
        .short_fade { fill: url(#shortfade);stroke: none}
    </style>
    <g id="short fade">
        <path id="Short Fade" class="short_fade" d="M 60.381563,308.85531 50,310 v -10 c 0,-140 50,-200 150,-200 100,0 150,60 150,200 v 10 h -10 v -20 c 0,-5 -9.61844,-18.47375 -14.61844,-23.47375 2.24676,-26.46988 -24.23479,-42.91148 -25.30221,-67.28937 -0.14247,-49.4237 -103.05402,10.03414 -103.13186,9.92064 0.035,0.0531 -96.53953,-59.54974 -97.408406,-9.53908 C 94.966801,221.73292 85.703752,245.83555 75,265.38156 70,270.38156 60,285 60,290 Z" />
    </g>
</svg>